<?xml version="1.0" standalone="no"?>
<!DOCTYPE svg PUBLIC "-//W3C//DTD SVG 20010904//EN"
 "http://www.w3.org/TR/2001/REC-SVG-20010904/DTD/svg10.dtd">
<svg version="1.0" xmlns="http://www.w3.org/2000/svg"
 width="512.000000pt" height="512.000000pt" viewBox="0 0 512.000000 512.000000"
 preserveAspectRatio="xMidYMid meet">

<g transform="translate(0.000000,512.000000) scale(0.100000,-0.100000)"
fill="#000000" stroke="none">
<path d="M2565 4704 c-242 -52 -425 -239 -472 -485 -31 -165 10 -377 116 -594
139 -282 370 -556 706 -835 222 -185 217 -184 365 -69 58 45 139 112 180 149
l75 67 90 -80 c172 -153 178 -153 340 -8 320 285 460 594 361 796 -29 58 -112
141 -152 151 -13 3 -24 8 -24 9 0 2 10 43 22 92 28 116 30 291 4 377 -52 173
-163 305 -321 381 -220 106 -465 78 -652 -75 l-62 -50 -63 50 c-150 121 -325
163 -513 124z m319 -188 c53 -26 91 -54 135 -101 33 -36 61 -70 61 -74 0 -5
14 -14 30 -21 24 -10 36 -10 60 0 17 7 30 16 30 20 0 19 124 139 170 164 180
98 403 64 544 -84 62 -65 90 -115 112 -203 21 -79 14 -203 -17 -317 l-21 -81
-57 -29 c-31 -15 -73 -46 -94 -68 l-39 -40 -36 40 c-76 84 -205 118 -311 83
-108 -36 -196 -149 -208 -271 -12 -111 45 -274 143 -411 l47 -66 -58 -51
c-125 -110 -221 -186 -233 -186 -40 0 -376 307 -520 475 -224 262 -344 496
-374 727 -22 175 21 308 131 411 102 94 196 128 339 123 83 -3 100 -7 166 -40z"/>
<path d="M2115 2444 c-115 -18 -174 -46 -431 -205 -187 -116 -214 -130 -214
-109 0 21 -73 89 -107 101 -19 6 -52 9 -72 5 -44 -7 -1156 -540 -1189 -570
-41 -37 -55 -74 -49 -135 3 -48 39 -129 246 -556 133 -274 253 -512 268 -527
33 -34 84 -52 132 -45 20 2 290 127 601 276 620 298 632 305 645 392 4 24 2
56 -4 72 -14 36 0 42 94 41 84 -1 131 -21 249 -107 291 -211 426 -267 652
-267 245 0 703 99 863 186 78 43 190 126 465 343 116 92 332 261 481 375 148
114 281 224 295 243 35 49 41 153 12 210 -87 170 -397 237 -604 132 -21 -11
-158 -109 -305 -219 l-267 -200 -20 52 c-27 73 -105 149 -176 173 -63 21 -80
21 -496 4 -289 -12 -292 -12 -335 9 -26 13 -62 44 -89 78 -80 101 -203 183
-335 224 -69 22 -240 35 -310 24z m239 -169 c112 -29 165 -63 272 -172 108
-110 169 -148 255 -159 24 -3 195 2 379 10 l335 16 44 -23 c77 -39 104 -130
59 -197 -46 -67 -39 -66 -527 -133 -453 -63 -454 -64 -478 -92 -19 -22 -23
-35 -19 -59 7 -35 39 -66 68 -66 12 0 219 27 462 61 481 66 507 73 581 144 61
58 715 546 754 562 91 38 204 34 298 -13 65 -31 91 -65 76 -97 -6 -13 -123
-109 -259 -214 -137 -105 -373 -288 -524 -407 -322 -253 -391 -302 -478 -333
-183 -67 -535 -134 -707 -135 -188 -1 -286 37 -518 203 -170 121 -238 155
-337 170 -61 8 -89 8 -150 -5 -41 -9 -77 -12 -82 -8 -4 4 -75 149 -158 322
-142 294 -150 315 -133 328 47 35 365 229 423 259 36 18 83 37 105 42 63 14
195 12 259 -4z"/>
</g>
</svg>
